# 3ds Max Wavefront OBJ Exporter v0.99 - (c)2007 guruware
# File Created: 05.08.2025 02:28:00

mtllib RayMesh.mtl

#
# object Box001
#

v  -2.5000 0.0000 100.0000
v  -2.5000 0.0000 -0.0000
v  2.5000 0.0000 -0.0000
v  2.5000 0.0000 100.0000
v  -2.5000 5.0000 100.0000
v  2.5000 5.0000 100.0000
v  2.5000 5.0000 -0.0000
v  -2.5000 5.0000 -0.0000
# 8 vertices

vn 0.0000 -1.0000 -0.0000
vn 0.0000 1.0000 -0.0000
vn 1.0000 0.0000 -0.0000
vn -1.0000 0.0000 -0.0000
# 4 vertex normals

vt 1.0000 0.0000 0.0000
vt 1.0000 1.0000 0.0000
vt 0.0000 1.0000 0.0000
vt 0.0000 0.0000 0.0000
# 4 texture coords

o Box001
g Box001
usemtl wire_154154229
s 2
f 1/1/1 2/2/1 3/3/1 
f 3/3/1 4/4/1 1/1/1 
s 4
f 5/4/2 6/1/2 7/2/2 
f 7/2/2 8/3/2 5/4/2 
s 16
f 4/4/3 3/1/3 7/2/3 
f 7/2/3 6/3/3 4/4/3 
s 64
f 2/4/4 1/1/4 5/2/4 
f 5/2/4 8/3/4 2/4/4 
# 8 faces

